{"title":"The.Hit.List.2011.480p.BRRip.XviD.AC3.Feel-Free","uid":6322813,"size":959443294,"categoryP":"video","categoryS":"movies","magnet":"?xt=urn:btih:c583548e8e384af09a071e1f621120e53f1c6df7&amp;dn=The.Hit.List.2011.480p.BRRip.XviD.AC3.Feel-Free&amp;tr=udp%3A%2F%2Ftracker.openbittorrent.com%3A80&amp;tr=udp%3A%2F%2Fopen.demonii.com%3A1337&amp;tr=udp%3A%2F%2Ftracker.coppersurfer.tk%3A6969&amp;tr=udp%3A%2F%2Fexodus.desync.com%3A6969","seeders":0,"leechers":1,"uploader":"HeroMaster","files":-1,"time":1302992785,"description":"The.Hit.List.2011.480p.BRRip.XviD.AC3.Feel-Free\n\n\nGenre:Action | Thriller\nLanguage:English\nIMDb:http://www.imdb.com/title/tt1575694/\nSource:BluRay.CHD\n\nFormat : AVI\nFormat/Info : Audio Video Interleave\nFile size : 913 MiB\nDuration : 1h 30mn\nOverall bit rate : 1 416 Kbps\n\n\nVideo\nID : 0\nFormat : MPEG-4 Visual\nFormat profile : Advanced Simple@L5\nFormat settings, BVOP : Yes\nFormat settings, QPel : No\nFormat settings, GMC : No warppoints\nFormat settings, Matrix : Default (H.263)\nMuxing mode : Packed bitstream\nCodec ID : XVID\nCodec ID/Hint : XviD\nDuration : 1h 30mn\nBit rate : 959 Kbps\nWidth : 720 pixels\nHeight : 400 pixels\nDisplay aspect ratio : 16:9\nFrame rate : 23.976 fps\nColor space : YUV\nChroma subsampling : 4:2:0\nBit depth : 8 bits\nScan type : Progressive\nBits/(Pixel*Frame) : 0.139\nStream size : 618 MiB (68%)\nWriting library : XviD 1.2.1 (UTC 2008-12-04)\n\nAudio\nID : 1\nFormat : AC-3\nFormat/Info : Audio Coding 3\nMode extension : CM (complete main)\nCodec ID : 2000\nDuration : 1h 30mn\nBit rate mode : Constant\nBit rate : 448 Kbps\nChannel(s) : 6 channels\nChannel positions : Front: L C R, Side: L R, LFE\nSampling rate : 48.0 KHz\nBit depth : 16 bits\nStream size : 289 MiB (32%)\nAlignment : Split accross interleaves\nInterleave, duration : 42 ms (1.00 video frame)\nInterleave, preload duration : 500 ms\n\n\nPlot:\n\nA disgruntled man creates a hit list with a stranger during a drunken night out and must then race to try to save those he marked for extermination as the bodies begin to pile up and all fingers point to him.\n\n\nScreens:\n\n &lt;a href=&quot;\nhttp://www.postimg.com/image/34000/photo-33405.jpg&quot; rel=&quot;nofollow&quot; target=&quot;_NEW&quot;&gt;\nhttp://www.postimg.com/image/34000/photo-33405.jpg&lt;/a&gt;\n &lt;a href=&quot;\nhttp://www.postimg.com/image/34000/photo-33406.jpg&quot; rel=&quot;nofollow&quot; target=&quot;_NEW&quot;&gt;\nhttp://www.postimg.com/image/34000/photo-33406.jpg&lt;/a&gt;\n\n\nENJOY!","torrent":{"xt":"urn:btih:c583548e8e384af09a071e1f621120e53f1c6df7","amp;dn":"The.Hit.List.2011.480p.BRRip.XviD.AC3.Feel-Free","amp;tr":["udp%3A%2F%2Ftracker.openbittorrent.com%3A80","udp%3A%2F%2Fopen.demonii.com%3A1337","udp%3A%2F%2Ftracker.coppersurfer.tk%3A6969","udp%3A%2F%2Fexodus.desync.com%3A6969"],"infoHash":"c583548e8e384af09a071e1f621120e53f1c6df7","infoHashBuffer":{"type":"Buffer","data":[197,131,84,142,142,56,74,240,154,7,30,31,98,17,32,229,63,28,109,247]},"announce":[],"urlList":[]}}